:SAMPLES-PER-SECOND 30
:FULLY-SPECIFIED
:DEGREES
484
root  -6.1377 39.4249 -9.23207 -61.0293 -88.3192 55.8113
RightUpLeg  8.28014 -18.4145 -3.09354
RightLeg  20.3079 -5.25906 0.369859
RightFoot  -20.0572 -0.233324 -1.27866
RightToes  0.00048216 0.542163 -0.142577
Spine  16.3813 0.580676 12.8844
Spine1  12.3454 5.19941 -9.49189
HEad  16.5331 33.9726 -13.0665
LeftShoulder1  8.07483 -12.1103 -45.065
LeftArm  -19.8129 21.6466 -28.0582
LeftForeArm  26.3407 -33.6856 -5.96541
LeftHand  -0.25398 0.0180481 5.50724
RightShoulder  5.92805 10.277 37.0073
RightArm  -4.45579 -9.22215 31.4843
RightForeArm  -5.76954 30.9527 7.09067
RightHand  -1.16909 1.57281 -19.5413
LeftUpLeg  -17.1365 8.69981 -5.27878
LeftLeg  6.95893 7.80616 -2.79538
LeftFoot  9.18716 0.654945 -4.00984
LeftToes  1.06243e-005 4.65856e-005 -8.18503e-006
485
root  -5.42382 39.7839 -8.88881 -66.5113 -87.0581 61.6299
RightUpLeg  7.48187 -15.5938 -4.15982
RightLeg  18.2196 -8.08613 0.913127
RightFoot  -18.0662 -0.183865 -1.04868
RightToes  0.00048216 0.542163 -0.142577
Spine  15.5823 0.699341 11.4996
Spine1  11.76 5.01318 -9.29192
HEad  16.5868 29.1659 -11.332
LeftShoulder1  7.97833 -12.1078 -44.5096
LeftArm  -20.7366 21.6006 -26.9589
LeftForeArm  26.6556 -36.1741 -6.59722
LeftHand  -0.25398 0.0180481 5.50724
RightShoulder  5.92894 10.2326 37.1484
RightArm  -2.20509 -11.9009 33.5429
RightForeArm  -7.53448 27.5451 6.3295
RightHand  -1.08082 1.38593 -18.5617
LeftUpLeg  -17.1184 11.8426 -6.5678
LeftLeg  12.9126 2.98301 0.419768
LeftFoot  4.41071 0.393538 -3.11184
LeftToes  1.06243e-005 4.65856e-005 -8.18503e-006
486
root  -4.79001 40.0331 -8.50768 -71.1172 -86.2469 66.819
RightUpLeg  6.49103 -13.1316 -5.00652
RightLeg  16.3857 -10.3706 1.41194
RightFoot  -16.7022 -0.149468 -0.782082
RightToes  0.00048216 0.542163 -0.142577
Spine  14.5253 0.830425 10.6806
Spine1  11.1479 4.9944 -9.3268
HEad  15.6458 23.8782 -10.2073
LeftShoulder1  7.80012 -11.9443 -43.9495
LeftArm  -21.6487 21.5747 -26.1077
LeftForeArm  26.9326 -38.287 -7.16739
LeftHand  -0.25398 0.0180481 5.50724
RightShoulder  5.98902 10.3238 37.2932
RightArm  1.34246 -14.8888 35.0964
RightForeArm  -8.6475 24.8959 5.76065
RightHand  -0.850423 0.430922 -16.9515
LeftUpLeg  -16.4528 8.87635 -4.93949
LeftLeg  18.4094 2.534 1.36022
LeftFoot  0.83987 0.45663 -4.33421
LeftToes  1.06243e-005 4.65856e-005 -8.18503e-006
487
root  -4.22234 40.1491 -8.07925 -74.0191 -86.0971 70.4719
RightUpLeg  5.05222 -11.9085 -5.46172
RightLeg  15.5514 -11.2737 1.71865
RightFoot  -15.8438 -0.131318 -0.617451
RightToes  0.00048216 0.542163 -0.142577
Spine  13.0514 0.942967 10.769
Spine1  10.9423 5.10463 -9.38546
HEad  13.8296 18.507 -9.72574
LeftShoulder1  7.66216 -11.7756 -43.6327
LeftArm  -22.4362 21.3046 -25.3982
LeftForeArm  27.0197 -39.8537 -7.62132
LeftHand  -0.25398 0.0180481 5.50724
RightShoulder  6.06898 10.4774 37.3861
RightArm  5.37117 -17.8728 36.1632
RightForeArm  -8.5374 23.1905 5.42647
RightHand  -0.592406 -0.906581 -15.2178
LeftUpLeg  -15.468 5.0703 -2.55519
LeftLeg  23.4398 3.01591 1.75905
LeftFoot  -2.33465 0.401066 -4.87158
LeftToes  1.06243e-005 4.65856e-005 -8.18503e-006
488
root  -3.68975 40.1874 -7.60365 -73.9102 -86.5382 71.1985
RightUpLeg  3.35432 -11.523 -5.47864
RightLeg  15.3124 -11.3182 1.97405
RightFoot  -15.2326 -0.121446 -0.541683
RightToes  0.00048216 0.542163 -0.142577
Spine  11.3611 0.941405 11.6393
Spine1  11.074 5.18706 -9.48524
HEad  11.8836 13.4455 -9.38707
LeftShoulder1  7.67052 -11.7372 -43.7979
LeftArm  -23.2148 20.9267 -24.6808
LeftForeArm  26.9739 -40.7726 -7.90416
LeftHand  -0.25398 0.0180481 5.50724
RightShoulder  6.08459 10.4958 37.4389
RightArm  9.13829 -20.5455 36.8416
RightForeArm  -7.15019 22.0772 5.39846
RightHand  -0.425627 -1.91081 -13.9011
LeftUpLeg  -14.1983 2.09928 -0.30492
LeftLeg  27.5326 3.89099 2.53359
LeftFoot  -4.93118 0.25735 -4.05192
LeftToes  1.06243e-005 4.65856e-005 -8.18503e-006
489
root  -3.17132 40.1906 -7.10366 -69.8369 -87.3174 67.8778
RightUpLeg  1.5484 -11.5117 -5.13412
RightLeg  15.5113 -11.1704 2.03459
RightFoot  -14.6765 -0.109326 -0.341456
RightToes  0.00048216 0.542163 -0.142577
Spine  9.95123 0.769184 12.5946
Spine1  11.055 4.97304 -9.31893
HEad  10.3323 9.21843 -8.94317
LeftShoulder1  7.73422 -11.711 -44.2607
LeftArm  -24.1383 20.725 -24.2856
LeftForeArm  26.9148 -40.8445 -7.93095
LeftHand  -0.25398 0.0180481 5.50724
RightShoulder  6.02391 10.3291 37.5213
RightArm  12.5821 -22.6764 37.0961
RightForeArm  -5.22148 21.1024 5.55705
RightHand  -0.360025 -2.32224 -13.1846
LeftUpLeg  -12.4522 0.200626 1.6656
LeftLeg  30.3287 4.74838 3.32333
LeftFoot  -6.29207 0.180737 -3.2532
LeftToes  1.06243e-005 4.65856e-005 -8.18503e-006
490
root  -2.66627 40.1632 -6.59949 -59.9892 -88.2446 58.6909
RightUpLeg  -0.514481 -11.8329 -4.48405
RightLeg  16.3792 -10.8643 1.6551
RightFoot  -14.0301 -0.0965883 -0.0692632
RightToes  0.00048216 0.542163 -0.142577
Spine  8.90082 0.515865 13.0597
Spine1  10.7305 4.40264 -8.47281
HEad  9.18891 6.0802 -8.4743
LeftShoulder1  7.69832 -11.5532 -44.5277
LeftArm  -24.9505 20.874 -24.7452
LeftForeArm  26.4975 -39.9407 -7.68237
LeftHand  -0.25398 0.0180481 5.50724
RightShoulder  5.92801 10.1153 37.5012
RightArm  14.8058 -24.3895 37.0611
RightForeArm  -3.17735 20.1118 5.86018
RightHand  -0.347972 -2.38022 -12.9499
LeftUpLeg  -9.78559 -0.0673178 3.39253
LeftLeg  30.5833 4.38075 3.13049
LeftFoot  -7.21168 0.191445 -4.18214
LeftToes  1.06243e-005 4.65856e-005 -8.18503e-006
491
root  -2.18792 40.1545 -6.09643 -63.6362 -89.2795 62.9558
RightUpLeg  -2.45691 -12.3345 -3.67415
RightLeg  17.0059 -10.2186 1.13844
RightFoot  -13.027 -0.0887264 -0.0603098
RightToes  0.00048216 0.542163 -0.142577
Spine  8.02485 0.33222 13.001
Spine1  10.3303 3.70295 -7.24316
HEad  8.11457 3.85626 -8.05153
LeftShoulder1  7.58087 -11.3594 -44.4139
LeftArm  -25.0566 21.4091 -26.004
LeftForeArm  25.3111 -38.3616 -7.29032
LeftHand  -0.25398 0.0180481 5.50724
RightShoulder  5.81555 9.95301 37.201
RightArm  14.9327 -26.0663 37.043
RightForeArm  -1.83704 19.393 6.12556
RightHand  -0.352458 -2.36056 -13.0408
LeftUpLeg  -5.93341 1.26343 4.82791
LeftLeg  26.886 2.71557 1.85148
LeftFoot  -9.27148 0.167896 -6.35952
LeftToes  1.06243e-005 4.65856e-005 -8.18503e-006
